<?xml version="1.0" encoding="UTF-8" standalone="no"?>
<!DOCTYPE svg PUBLIC "-//W3C//DTD SVG 1.1//EN" "http://www.w3.org/Graphics/SVG/1.1/DTD/svg11.dtd">
<svg width="100%" height="100%" viewBox="0 0 547 547" version="1.1" xmlns="http://www.w3.org/2000/svg" xmlns:xlink="http://www.w3.org/1999/xlink" xml:space="preserve" xmlns:serif="http://www.serif.com/" style="fill-rule:evenodd;clip-rule:evenodd;stroke-linejoin:round;stroke-miterlimit:2;">
    <path d="M247,546C211,542 184,534 153,519C81,484 28,418 9,341C2,316 1,302 1,274C1,248 2,237 6,216C15,174 35,133 62,100C72,87 93,67 105,58C143,28 186,10 236,2C254,0 296,0 315,3C363,10 408,30 446,61C457,69 478,90 486,101C520,143 541,195 546,247C548,263 547,300 545,313C538,356 524,391 502,425C490,443 482,453 467,468C424,510 372,536 312,545C299,546 259,547 247,546ZM235,378L274,340L313,379L352,417L381,389L409,360L371,321L332,282L371,243L409,204L351,146L313,185L274,224L234,185L195,146L167,175L138,204L177,243L216,281L177,321L138,360L195,417C196,417 214,400 235,378Z" style="fill:rgb(237,27,46);fill-rule:nonzero;"/>
</svg>
