<?xml version="1.0" encoding="UTF-8"?>
<!DOCTYPE svg  PUBLIC '-//W3C//DTD SVG 1.1//EN'  'http://www.w3.org/Graphics/SVG/1.1/DTD/svg11.dtd'>
<svg clip-rule="evenodd" fill-rule="evenodd" stroke-linejoin="round" stroke-miterlimit="2" version="1.1" viewBox="0 0 24 24" xml:space="preserve" xmlns="http://www.w3.org/2000/svg">
    <g transform="matrix(.027472 0 0 .027472 -1.8381 -1.7427)">
        <path d="m678 887c0-3-1-28-2-55-1-50-1-135 1-143 1-3 1-3 4-3 5 0 13 5 52 30 49 33 116 82 117 86 2 4-3 10-17 24-28 28-71 52-106 60-5 1-11 2-13 3-4 1-27 4-32 4h-4v-6zm-509-56c-8-1-16-2-17-2-4-2-8-8-11-15-2-5-2-8-3-43-1-44 0-347 1-370 1-13 1-15 4-20 5-10 3-9 54-10 24 0 46 0 50 1 8 0 12 4 14 11 3 11 3 43 3 233v195l-3 6c-3 4-5 6-9 9-5 4-7 4-15 5-10 1-48 1-68 0zm158 0c-10-1-13-3-20-13l-2-4-1-341c0-262 0-343 1-346 3-11 7-16 15-18s86-2 92 0 10 6 14 15l4 8v314l-6 9c-42 62-54 139-35 211 7 25 19 51 33 73l8 11v59l-3 5c-2 3-3 5-3 6 0 0-1 2-3 4-5 7-8 7-50 8-21 0-40-1-44-1zm162 0c-8-1-9-2-14-5-6-5-7-7-7-21l1-13 9 7c12 10 26 19 40 27l13 6h-18c-10 0-21-1-24-1zm118-4c-16-2-45-10-54-14-11-4-35-17-45-24-37-24-75-71-89-111-4-12-10-38-13-53-2-13-2-32 0-36l1-3h12c31 2 151 13 178 16 8 1 19 2 24 2h8v224h-10c-5 0-11 0-12-1zm210-115c-20-13-63-43-108-76-51-37-54-39-54-41-2-5 5-15 40-66 48-68 80-111 85-113 1-1 2-1 3 0 6 2 36 33 48 50 12 16 25 46 32 74 8 34 9 74 3 107-1 6-3 14-6 21-5 14-25 53-27 54l-16-10zm-221-126c-16-2-42-4-57-5-25-2-58-5-107-12-11-1-21-2-21-3-2 0-1-13 1-20 2-10 8-30 13-42 24-60 78-109 143-128 22-7 39-10 64-11 34-1 60 4 94 17 22 9 36 17 36 20 0 2-16 27-41 62-11 16-30 43-41 59-21 31-40 57-45 61-1 2-4 3-6 4-2 0-16-1-33-2zm-129-222c0-40 0-41 2-45 3-6 6-9 11-11 7-3 92-3 99 0 5 2 7 4 11 10 3 5 3 5 3 16v11l-10 2c-38 8-76 26-107 51l-9 7v-41zm279 1c-32-15-72-24-106-24h-9v-49c0-48 0-49 2-55 3-7 7-11 13-13s70-3 84-1c15 1 17 3 23 12l4 7v64c0 35 0 64-1 64 0 0-5-2-10-5z" fill-rule="nonzero" fill="#000"/>
    </g>
</svg>
